<svg width="149" height="36" viewBox="0 0 149 36" fill="none" xmlns="http://www.w3.org/2000/svg">
<path fill-rule="evenodd" clip-rule="evenodd" d="M19.2766 6.60808C17.2116 6.35167 15.1163 6.66896 13.2176 7.52556C11.3189 8.38217 9.68923 9.74543 8.50512 11.4677C7.32101 13.1899 6.62761 15.2055 6.50001 17.2961C6.37242 19.3867 6.81551 21.4726 7.78127 23.3278C8.74704 25.183 10.2595 26.6907 12.0397 27.7748C13.82 28.859 15.8001 29.4437 17.8808 29.4437V36C14.618 36 11.4173 35.1013 8.62556 33.4011C5.83381 31.701 3.5574 29.2643 2.0429 26.355C0.528405 23.4456 -0.166431 20.1746 0.0336582 16.8962C0.233748 13.6178 1.32114 10.457 3.17803 7.75615C5.03493 5.05534 7.59054 2.91748 10.568 1.57417C13.5455 0.230862 16.8314 -0.266699 20.0697 0.135389C23.308 0.537477 26.3753 1.82389 28.9393 3.85526C31.5033 5.88664 33.4663 8.72725 34.6156 11.8013H27.8578C27.8578 11.8013 26.9217 10.4367 25.0331 8.9404C23.3981 7.64502 21.3416 6.86448 19.2766 6.60808Z" fill="#2A97D9"/>
<path d="M35.7607 18.9536H15.9727L25.2234 24.782V35.8808L35.7607 18.9536Z" fill="#8BC04D"/>
<path d="M53 26.288C51.432 26.288 50.056 25.928 48.872 25.208C47.688 24.472 46.768 23.456 46.112 22.16C45.456 20.848 45.128 19.336 45.128 17.624C45.128 15.912 45.456 14.4 46.112 13.088C46.784 11.776 47.728 10.752 48.944 10.016C50.176 9.28 51.624 8.912 53.288 8.912C55.176 8.912 56.744 9.368 57.992 10.28C59.256 11.192 60.072 12.448 60.44 14.048H58.112C57.888 13.04 57.352 12.24 56.504 11.648C55.672 11.056 54.6 10.76 53.288 10.76C52.056 10.76 50.984 11.04 50.072 11.6C49.16 12.144 48.448 12.928 47.936 13.952C47.44 14.976 47.192 16.2 47.192 17.624C47.192 19.048 47.44 20.272 47.936 21.296C48.432 22.32 49.12 23.112 50 23.672C50.88 24.216 51.904 24.488 53.072 24.488C54.864 24.488 56.216 23.968 57.128 22.928C58.04 21.872 58.56 20.432 58.688 18.608H53.84V17.024H60.752V26H58.904L58.736 23.24C58.128 24.216 57.384 24.968 56.504 25.496C55.624 26.024 54.456 26.288 53 26.288ZM67.3241 26.288C66.2041 26.288 65.1961 26.032 64.3001 25.52C63.4041 25.008 62.6921 24.288 62.1641 23.36C61.6521 22.416 61.3961 21.312 61.3961 20.048C61.3961 18.784 61.6601 17.688 62.1881 16.76C62.7161 15.816 63.4281 15.088 64.3241 14.576C65.2361 14.064 66.2521 13.808 67.3721 13.808C68.4921 13.808 69.5001 14.064 70.3961 14.576C71.2921 15.088 71.9961 15.816 72.5081 16.76C73.0361 17.688 73.3001 18.784 73.3001 20.048C73.3001 21.312 73.0361 22.416 72.5081 23.36C71.9801 24.288 71.2601 25.008 70.3481 25.52C69.4521 26.032 68.4441 26.288 67.3241 26.288ZM67.3241 24.56C68.0121 24.56 68.6521 24.392 69.2441 24.056C69.8361 23.72 70.3161 23.216 70.6841 22.544C71.0521 21.872 71.2361 21.04 71.2361 20.048C71.2361 19.056 71.0521 18.224 70.6841 17.552C70.3321 16.88 69.8601 16.376 69.2681 16.04C68.6761 15.704 68.0441 15.536 67.3721 15.536C66.6841 15.536 66.0441 15.704 65.4521 16.04C64.8601 16.376 64.3801 16.88 64.0121 17.552C63.6441 18.224 63.4601 19.056 63.4601 20.048C63.4601 21.04 63.6441 21.872 64.0121 22.544C64.3801 23.216 64.8521 23.72 65.4281 24.056C66.0201 24.392 66.6521 24.56 67.3241 24.56ZM81.6712 26.288C80.0232 26.288 78.5992 25.928 77.3992 25.208C76.2152 24.472 75.2952 23.456 74.6392 22.16C73.9832 20.848 73.6552 19.328 73.6552 17.6C73.6552 15.888 73.9832 14.384 74.6392 13.088C75.2952 11.776 76.2152 10.752 77.3992 10.016C78.5992 9.28 80.0232 8.912 81.6712 8.912C83.5912 8.912 85.1512 9.376 86.3512 10.304C87.5672 11.216 88.3432 12.496 88.6792 14.144H86.4472C86.1912 13.104 85.6632 12.272 84.8632 11.648C84.0792 11.008 83.0152 10.688 81.6712 10.688C80.4712 10.688 79.4232 10.968 78.5272 11.528C77.6312 12.072 76.9352 12.864 76.4392 13.904C75.9592 14.928 75.7192 16.16 75.7192 17.6C75.7192 19.04 75.9592 20.28 76.4392 21.32C76.9352 22.344 77.6312 23.136 78.5272 23.696C79.4232 24.24 80.4712 24.512 81.6712 24.512C83.0152 24.512 84.0792 24.208 84.8632 23.6C85.6632 22.976 86.1912 22.152 86.4472 21.128H88.6792C88.3432 22.744 87.5672 24.008 86.3512 24.92C85.1512 25.832 83.5912 26.288 81.6712 26.288ZM93.4966 26.288C92.5046 26.288 91.6806 26.12 91.0246 25.784C90.3686 25.448 89.8806 25 89.5606 24.44C89.2406 23.88 89.0806 23.272 89.0806 22.616C89.0806 21.4 89.5446 20.464 90.4726 19.808C91.4006 19.152 92.6646 18.824 94.2646 18.824H97.4806V18.68C97.4806 17.64 97.2086 16.856 96.6646 16.328C96.1206 15.784 95.3926 15.512 94.4806 15.512C93.6966 15.512 93.0166 15.712 92.4406 16.112C91.8806 16.496 91.5286 17.064 91.3846 17.816H89.3206C89.4006 16.952 89.6886 16.224 90.1846 15.632C90.6966 15.04 91.3286 14.592 92.0806 14.288C92.8326 13.968 93.6326 13.808 94.4806 13.808C96.1446 13.808 97.3926 14.256 98.2246 15.152C99.0726 16.032 99.4966 17.208 99.4966 18.68V26H97.6966L97.5766 23.864C97.2406 24.536 96.7446 25.112 96.0886 25.592C95.4486 26.056 94.5846 26.288 93.4966 26.288ZM93.8086 24.584C94.5766 24.584 95.2326 24.384 95.7766 23.984C96.3366 23.584 96.7606 23.064 97.0486 22.424C97.3366 21.784 97.4806 21.112 97.4806 20.408V20.384H94.4326C93.2486 20.384 92.4086 20.592 91.9126 21.008C91.4326 21.408 91.1926 21.912 91.1926 22.52C91.1926 23.144 91.4166 23.648 91.8646 24.032C92.3286 24.4 92.9766 24.584 93.8086 24.584ZM100.601 26V14.096H102.425L102.545 16.232C102.929 15.48 103.481 14.888 104.201 14.456C104.921 14.024 105.737 13.808 106.649 13.808C108.057 13.808 109.177 14.24 110.009 15.104C110.857 15.952 111.281 17.264 111.281 19.04V26H109.265V19.256C109.265 16.776 108.241 15.536 106.193 15.536C105.169 15.536 104.313 15.912 103.625 16.664C102.953 17.4 102.617 18.456 102.617 19.832V26H100.601ZM117.839 26.288C116.719 26.288 115.711 26.032 114.815 25.52C113.919 25.008 113.207 24.288 112.679 23.36C112.167 22.416 111.911 21.312 111.911 20.048C111.911 18.784 112.175 17.688 112.703 16.76C113.231 15.816 113.943 15.088 114.839 14.576C115.751 14.064 116.767 13.808 117.887 13.808C119.007 13.808 120.015 14.064 120.911 14.576C121.807 15.088 122.511 15.816 123.023 16.76C123.551 17.688 123.815 18.784 123.815 20.048C123.815 21.312 123.551 22.416 123.023 23.36C122.495 24.288 121.775 25.008 120.863 25.52C119.967 26.032 118.959 26.288 117.839 26.288ZM117.839 24.56C118.527 24.56 119.167 24.392 119.759 24.056C120.351 23.72 120.831 23.216 121.199 22.544C121.567 21.872 121.751 21.04 121.751 20.048C121.751 19.056 121.567 18.224 121.199 17.552C120.847 16.88 120.375 16.376 119.783 16.04C119.191 15.704 118.559 15.536 117.887 15.536C117.199 15.536 116.559 15.704 115.967 16.04C115.375 16.376 114.895 16.88 114.527 17.552C114.159 18.224 113.975 19.056 113.975 20.048C113.975 21.04 114.159 21.872 114.527 22.544C114.895 23.216 115.367 23.72 115.943 24.056C116.535 24.392 117.167 24.56 117.839 24.56ZM124.699 31.28V14.096H126.523L126.715 16.064C127.099 15.488 127.643 14.968 128.347 14.504C129.067 14.04 129.979 13.808 131.083 13.808C132.267 13.808 133.299 14.08 134.179 14.624C135.059 15.168 135.739 15.912 136.219 16.856C136.715 17.8 136.963 18.872 136.963 20.072C136.963 21.272 136.715 22.344 136.219 23.288C135.739 24.216 135.051 24.952 134.155 25.496C133.275 26.024 132.243 26.288 131.059 26.288C130.083 26.288 129.211 26.088 128.443 25.688C127.691 25.288 127.115 24.728 126.715 24.008V31.28H124.699ZM130.843 24.536C131.643 24.536 132.347 24.352 132.955 23.984C133.563 23.6 134.043 23.072 134.395 22.4C134.747 21.728 134.923 20.944 134.923 20.048C134.923 19.152 134.747 18.368 134.395 17.696C134.043 17.024 133.563 16.504 132.955 16.136C132.347 15.752 131.643 15.56 130.843 15.56C130.043 15.56 129.339 15.752 128.731 16.136C128.123 16.504 127.643 17.024 127.291 17.696C126.939 18.368 126.763 19.152 126.763 20.048C126.763 20.944 126.939 21.728 127.291 22.4C127.643 23.072 128.123 23.6 128.731 23.984C129.339 24.352 130.043 24.536 130.843 24.536ZM138.184 31.28L141.136 24.848H140.44L135.712 14.096H137.896L141.832 23.36L146.008 14.096H148.096L140.296 31.28H138.184Z" fill="white"/>
</svg>
